<svg id="Layer_1" data-name="Layer 1" xmlns="http://www.w3.org/2000/svg" viewBox="0 0 512 512"><defs><style>.cls-1{fill:#141f38;}</style></defs><title>glass-3-outline</title><path class="cls-1" d="M371.2,38.4A38.4,38.4,0,0,0,332.8,0H179.2a38.4,38.4,0,0,0-12.8,74.61V422.4a89.6,89.6,0,1,0,179.2,0V74.61A38.41,38.41,0,0,0,371.2,38.4ZM320,422.4a64,64,0,0,1-128,0h12.8a12.8,12.8,0,0,0,0-25.6H192V371.2h38.4a12.8,12.8,0,0,0,0-25.6H192V320H320Zm-115.2-128H192V268.8h38.4a12.8,12.8,0,0,0,0-25.6H192V217.6h12.8a12.8,12.8,0,0,0,0-25.6H192V166.4h38.4a12.8,12.8,0,0,0,0-25.6H192v-64H320V294.4Zm128-243.2H179.2a12.8,12.8,0,0,1,0-25.6H332.8a12.8,12.8,0,0,1,0,25.6Z"/></svg>