<svg id="Layer_1" enable-background="new 0 0 512 512" height="512" viewBox="0 0 512 512" width="512" xmlns="http://www.w3.org/2000/svg"><g><path d="m409.497 164.623v182.755c0 90.919-73.704 164.623-164.623 164.623h-93.865c-26.789 0-48.506-21.717-48.506-48.506v-414.989c0-26.789 21.717-48.506 48.506-48.506h93.865c90.919 0 164.623 73.704 164.623 164.623zm-76.749 188.276v-193.798c0-45.454-36.848-82.301-82.301-82.301h-66.198c-2.76 0-4.997 2.237-4.997 4.997v348.407c0 2.76 2.237 4.997 4.997 4.997h66.198c45.453 0 82.301-36.848 82.301-82.302z" fill="#80d261"/><g fill="#68ca44"><path d="m244.874 0h-30.905c90.919 0 164.623 73.704 164.623 164.623v182.755c0 90.919-73.704 164.623-164.623 164.623h30.905c90.919 0 164.623-73.704 164.623-164.623v-182.755c0-90.919-73.704-164.623-164.623-164.623z"/><path d="m184.249 76.799h-30.905c-2.76 0-4.997 2.237-4.997 4.997v348.407c0 2.76 2.237 4.997 4.997 4.997h30.905c-2.76 0-4.997-2.237-4.997-4.997v-348.407c0-2.76 2.237-4.997 4.997-4.997z"/></g><path d="m409.497 347.377v-20.19c-24.276-16.401-50.217-28.852-76.749-38.158v63.87c0 45.454-36.848 82.301-82.301 82.301h-66.198c-2.76 0-4.997-2.237-4.997-4.997v-166.022c-28.063-.292-54.169 1.375-76.749 3.788v195.525c0 26.789 21.717 48.506 48.506 48.506h93.865c90.919 0 164.623-73.704 164.623-164.623z" fill="#7a6d79"/><path d="m179.645 432.149c-.126-.299-.225-.613-.291-.938-.067-.325-.102-.662-.102-1.007v-166.023c-10.61-.11-20.939.06-30.905.444v165.579c0 2.76 2.237 4.997 4.997 4.997h30.905c-2.07 0-3.846-1.259-4.604-3.052z" fill="#685e68"/><g><path d="m378.592 308.817v38.561c0 90.919-73.704 164.623-164.623 164.623h30.905c90.919 0 164.623-73.704 164.623-164.623v-20.19c-10.041-6.784-20.371-12.882-30.905-18.371z" fill="#685e68"/></g></g></svg>